<svg xmlns="http://www.w3.org/2000/svg" xmlns:xlink="http://www.w3.org/1999/xlink" width="1080" zoomAndPan="magnify" viewBox="0 0 810 809.999993" height="1080" preserveAspectRatio="xMidYMid meet" version="1.0"><path fill="#ffffff" d="M 142.015625 433.476562 L 666.667969 433.476562 C 677.460938 433.476562 686.234375 442.25 686.234375 453.035156 C 686.234375 453.613281 686.234375 454.113281 686.234375 454.691406 L 660.699219 771.097656 C 659.402344 786.84375 646.238281 798.996094 630.484375 798.996094 L 178.273438 798.996094 C 162.449219 798.996094 149.28125 786.84375 147.988281 771.097656 L 122.519531 454.691406 C 121.65625 443.902344 129.644531 434.410156 140.433594 433.546875 C 140.9375 433.546875 141.441406 433.476562 142.015625 433.476562 Z M 315.316406 333.378906 C 355.964844 382.5625 428.695312 389.46875 477.902344 348.910156 C 483.511719 344.234375 488.691406 339.058594 493.367188 333.378906 L 625.015625 418.230469 C 627.101562 419.527344 629.117188 420.964844 631.058594 422.472656 L 177.625 422.472656 C 179.570312 420.964844 181.582031 419.527344 183.667969 418.230469 Z M 445.886719 135.695312 C 446.246094 135.625 446.605469 135.765625 446.824219 136.054688 C 459.195312 155.183594 480.417969 166.832031 503.222656 167.046875 C 506.316406 167.121094 508.761719 169.636719 508.761719 172.65625 L 508.761719 259.8125 C 508.546875 317.484375 461.570312 364.082031 403.875 363.867188 C 346.539062 363.578125 300.066406 317.199219 299.851562 259.8125 L 299.851562 194.375 C 299.851562 191.28125 302.296875 188.765625 305.460938 188.765625 C 305.75 188.765625 306.039062 188.765625 306.324219 188.835938 C 358.699219 196.601562 411.355469 176.613281 445.382812 135.984375 C 445.457031 135.839844 445.601562 135.695312 445.816406 135.695312 Z M 356.972656 0 C 292.441406 0 240.070312 52.277344 240.070312 116.78125 C 240.070312 116.855469 240.070312 116.855469 240.070312 116.855469 L 240.070312 168.199219 C 240.070312 205.878906 258.269531 241.261719 288.917969 263.121094 C 289.492188 285.054688 296.398438 306.410156 308.699219 324.605469 L 177.699219 408.953125 C 171.65625 412.839844 166.042969 417.367188 160.9375 422.546875 L 142.015625 422.546875 C 125.109375 422.472656 111.371094 436.210938 111.371094 453.035156 C 111.371094 453.898438 111.441406 454.761719 111.441406 455.554688 L 136.980469 771.960938 C 138.707031 793.460938 156.691406 810 178.273438 810 L 630.484375 810 C 651.992188 810 669.976562 793.460938 671.703125 771.960938 L 697.171875 455.554688 C 698.539062 438.726562 685.949219 423.984375 669.113281 422.617188 C 668.324219 422.546875 667.460938 422.546875 666.667969 422.546875 L 647.75 422.546875 C 642.640625 417.367188 637.03125 412.839844 630.988281 408.953125 L 499.984375 324.605469 C 512.359375 306.410156 519.195312 285.054688 519.769531 263.121094 C 550.414062 241.1875 568.617188 205.878906 568.617188 168.199219 L 568.617188 108.296875 C 568.617188 82.410156 549.984375 60.332031 524.515625 55.875 C 521.710938 55.371094 519.195312 53.789062 517.609375 51.34375 C 496.246094 19.273438 460.203125 0 421.644531 0 L 356.972656 0 " fill-opacity="1" fill-rule="nonzero"/><path fill="#ffffff" d="M 377.6875 706.375 L 441.425781 520.417969 C 442.289062 517.46875 440.636719 514.449219 437.757812 513.511719 C 434.953125 512.648438 432.003906 514.089844 430.996094 516.820312 L 367.257812 702.78125 C 366.324219 705.65625 367.976562 708.75 370.925781 709.683594 C 373.660156 710.476562 376.609375 709.039062 377.6875 706.375 " fill-opacity="1" fill-rule="nonzero"/><path fill="#ffffff" d="M 476.75 566.871094 L 522.574219 612.675781 L 476.75 658.484375 C 474.734375 660.640625 474.808594 664.164062 477.109375 666.25 C 479.195312 668.191406 482.433594 668.191406 484.519531 666.25 L 531.351562 619.507812 C 535.09375 615.699219 535.09375 609.585938 531.351562 605.847656 L 484.519531 559.105469 C 482.289062 557.019531 478.835938 557.164062 476.75 559.390625 C 474.808594 561.550781 474.808594 564.785156 476.75 566.871094 " fill-opacity="1" fill-rule="nonzero"/><path fill="#ffffff" d="M 320.785156 666.25 C 323.085938 668.265625 326.613281 667.976562 328.554688 665.746094 C 330.425781 663.660156 330.351562 660.496094 328.554688 658.484375 L 282.800781 612.675781 L 328.554688 566.871094 C 330.570312 564.570312 330.351562 561.117188 328.125 559.105469 C 326.035156 557.304688 322.871094 557.304688 320.785156 559.105469 L 274.023438 605.847656 C 270.285156 609.585938 270.285156 615.699219 274.023438 619.507812 L 320.785156 666.25 " fill-opacity="1" fill-rule="nonzero"/></svg>